<svg fill="#fff" height="800" width="800" xmlns="http://www.w3.org/2000/svg" viewBox="0 0 512 512"><path d="M450.619 252.577a8.742 8.742 0 00-7.836-4.866h-215.38a8.757 8.757 0 00-4.869 1.483L165.3 287.566a8.743 8.743 0 000 14.522l57.234 38.372a8.746 8.746 0 004.869 1.482h215.379a8.74 8.74 0 007.836-4.866c13.087-26.458 13.087-58.045.001-84.499zM196.99 302.283l-11.122-7.458 11.122-7.456a27.819 27.819 0 011.028 7.455c0 2.549-.359 5.051-1.028 7.459zm25.986 17.423l-11.011-7.383a45.112 45.112 0 003.538-17.498c0-6.07-1.226-11.991-3.536-17.495l11.012-7.383a88.345 88.345 0 01-.003 49.759zm170.022 4.75H239.824a105.464 105.464 0 003.866-20.888h154.653a77.712 77.712 0 01-5.345 20.888zM243.69 286.084a105.68 105.68 0 00-3.865-20.888h153.173a77.787 77.787 0 015.345 20.888H243.69zm193.455 38.372h-25.519c6.236-19.191 6.236-40.069 0-59.26h25.519c7.752 18.889 7.752 40.371 0 59.26z"/><path d="M503.258 151.708H377.642v-31.533c0-25.43-20.688-46.119-46.119-46.119h-112.57c-25.43 0-46.119 20.69-46.119 46.119v28.8l-36.341-62.944c-2.413-4.181-7.763-5.614-11.942-3.2L4.371 152.216c-2.008 1.16-3.472 3.069-4.073 5.308s-.287 4.626.873 6.633l52.79 91.434V429.2a8.741 8.741 0 008.742 8.742h440.554a8.741 8.741 0 008.742-8.742V160.45a8.74 8.74 0 00-8.741-8.742zm-143.1-31.532v31.533h-14.427v-34.487c0-9.312-2.974-17.938-8.008-24.996 12.818 2.84 22.435 14.29 22.435 27.95zm-137.929-.001c0-15.789 12.846-28.634 28.634-28.634h51.703c14.16 0 25.681 11.52 25.681 25.681v34.487H222.229v-31.534zm-31.912.001c0-14.266 10.488-26.126 24.157-28.282-6.089 7.817-9.729 17.63-9.729 28.282v31.533h-14.428v-31.533zM81.943 420.459H71.446V285.874l10.497 18.181v116.404zm4.434-267.616a8.74 8.74 0 00-4.435 7.607v108.638l-61.26-106.102 105.039-60.643 28.5 49.365-63.291.003a8.801 8.801 0 00-4.553 1.132zm23.548 267.616H99.427V169.196h10.497v251.263zm17.483 0v-32.571c16.28 3.442 29.129 16.289 32.57 32.571h-32.57zm367.108 0h-32.569c3.442-16.281 16.289-29.129 32.569-32.571v32.571zm0-50.324c-25.941 3.823-46.501 24.383-50.323 50.324H177.732c-3.823-25.941-24.383-46.502-50.323-50.324V169.192h367.107v200.943z"/></svg>